<svg width="200" height="200" viewBox="0 0 200 200" xmlns="http://www.w3.org/2000/svg">
    <path d="M150 183.333L175 158.333L169.167 152.5L154.167 167.5V133.333H145.833V167.5L130.833 152.5L125 158.333L150 183.333ZM100 33.3334L50.625 61.8751L100 90.4167L149.375 61.8751L100 33.3334ZM25 133.125V66.8751C25 63.8195 25.7292 61.0417 27.1875 58.5417C28.6458 56.0417 30.6944 54.0279 33.3333 52.5001L91.6667 18.9584C93.0556 18.264 94.4097 17.7084 95.7292 17.2917C97.0486 16.8751 98.4722 16.6667 100 16.6667C101.528 16.6667 102.986 16.8751 104.375 17.2917C105.764 17.7084 107.083 18.264 108.333 18.9584L166.667 52.5001C169.306 54.0279 171.354 56.0417 172.813 58.5417C174.271 61.0417 175 63.8195 175 66.8751V100H158.333V75.8334L99.7917 109.583L41.6667 75.8334V132.917L91.6667 161.875V181.042L33.3333 147.5C30.6944 145.972 28.6458 143.958 27.1875 141.458C25.7292 138.958 25 136.181 25 133.125ZM120.521 187.813C112.396 179.688 108.333 169.861 108.333 158.333C108.333 146.806 112.396 136.979 120.521 128.854C128.646 120.729 138.472 116.667 150 116.667C161.528 116.667 171.354 120.729 179.479 128.854C187.604 136.979 191.667 146.806 191.667 158.333C191.667 169.861 187.604 179.688 179.479 187.813C171.354 195.938 161.528 200 150 200C138.472 200 128.646 195.938 120.521 187.813Z"/>
</svg>
